<?xml version="1.0" encoding="UTF-8" standalone="no"?>
<svg
   width="383.28827"
   height="273.17383"
   viewBox="0 0 383.28827 273.17383"
   version="1.1"
   xml:space="preserve"
   style="clip-rule:evenodd;fill-rule:evenodd;stroke-linecap:round;stroke-linejoin:round;stroke-miterlimit:1.5"
   id="svg16"
   sodipodi:docname="logo_small_blue.svg"
   inkscape:version="1.2.2 (732a01da63, 2022-12-09)"
   xmlns:inkscape="http://www.inkscape.org/namespaces/inkscape"
   xmlns:sodipodi="http://sodipodi.sourceforge.net/DTD/sodipodi-0.dtd"
   xmlns="http://www.w3.org/2000/svg"
   xmlns:svg="http://www.w3.org/2000/svg"
   xmlns:serif="http://www.serif.com/"><defs
   id="defs20" /><sodipodi:namedview
   id="namedview18"
   pagecolor="#ffffff"
   bordercolor="#000000"
   borderopacity="0.25"
   inkscape:showpageshadow="2"
   inkscape:pageopacity="0.0"
   inkscape:pagecheckerboard="0"
   inkscape:deskcolor="#d1d1d1"
   showgrid="false"
   inkscape:zoom="1.0460922"
   inkscape:cx="193.09961"
   inkscape:cy="244.7203"
   inkscape:window-width="1852"
   inkscape:window-height="1057"
   inkscape:window-x="-8"
   inkscape:window-y="-8"
   inkscape:window-maximized="1"
   inkscape:current-layer="svg16" />
    <g
   id="M--Farbe-"
   serif:id="M (Farbe)"
   transform="matrix(1.91092,0,0,1.91092,-754.31668,-192.56174)">
        <g
   id="R"
   transform="matrix(-1,0,0,1,990.058,-0.439674)">
            <path
   id="left-bottom"
   serif:id="left bottom"
   d="m 496.02,224.138 c -32.002,-15.739 -61.374,-11.041 -88.498,11.115 37.762,12.629 66.868,8.146 88.498,-11.115 z"
   style="fill:none;stroke:#697d65;stroke-width:2.77px" />
            <path
   id="left-middle"
   serif:id="left middle"
   d="m 496.02,224.138 c -10.361,-43.708 -43.761,-67.021 -99.895,-70.208 17.938,48.82 50.441,73.539 99.895,70.208 z"
   style="fill:none;stroke:#697d65;stroke-width:2.77px" />
            <g
   id="L-U"
   serif:id="L U">
                <path
   id="L-U1"
   serif:id="L U"
   d="m 473.085,160.746 c -7.08,-11.857 -14.312,-24.073 -30.637,-26.699"
   style="fill:none;stroke:#697d65;stroke-width:2.77px" />
                <path
   id="left-up"
   serif:id="left up"
   d="m 442.421,162.461 c -3.135,-13.081 -0.625,-18.444 -0.423,-28.234"
   style="fill:none;stroke:#697d65;stroke-width:2.77px" />
            </g>
        </g>
        <g
   id="L">
            <path
   id="left-bottom1"
   serif:id="left bottom"
   d="m 496.02,224.138 c -32.002,-15.739 -61.374,-11.041 -88.498,11.115 37.762,12.629 66.868,8.146 88.498,-11.115 z"
   style="fill:none;stroke:#697d65;stroke-width:2.77px" />
            <path
   id="left-middle1"
   serif:id="left middle"
   d="m 496.02,224.138 c -10.361,-43.708 -43.761,-67.021 -99.895,-70.208 17.938,48.82 50.441,73.539 99.895,70.208 z"
   style="fill:none;stroke:#697d65;stroke-width:2.77px" />
            <g
   id="L-U2"
   serif:id="L U">
                <path
   id="L-U3"
   serif:id="L U"
   d="M 473.626,161.556 C 463.303,148.799 450.579,140.095 434.254,137.468"
   style="fill:none;stroke:#697d65;stroke-width:2.77px" />
                <path
   id="left-up1"
   serif:id="left up"
   d="m 436.298,160.66 c -2.055,-4.526 -2.246,-13.401 -2.044,-23.192"
   style="fill:none;stroke:#697d65;stroke-width:2.77px" />
            </g>
        </g>
        <path
   id="middle"
   d="m 496.02,224.138 c -30.788,-30.051 -30.274,-70.923 -0.282,-121.984 27.226,43.695 30.085,84.666 0.282,121.984 z"
   style="fill:none;stroke:#697d65;stroke-width:2.77px" />
    </g>
<path
   style="fill:#000080;stroke-width:0.955939"
   d="M 74.085248,271.00532 C 56.080045,268.45053 25.10147,260.62371 22.464559,257.9632 c -2.91001,-2.93606 31.154602,-24.85988 50.434097,-32.45916 2.711383,-1.06872 8.325924,-2.9236 12.476759,-4.12196 l 7.546972,-2.17881 -5.594815,-3.14098 C 66.364042,204.29322 45.445214,184.02216 29.251697,159.7848 17.471544,142.15306 -0.22146071,104.82065 1.3104622,100.82852 c 0.537963,-1.401911 1.6290706,-1.526652 8.4958187,-0.971309 20.0997821,1.625579 39.1438021,4.625509 55.5503411,8.750649 5.188817,1.30463 9.616119,2.19015 9.838452,1.96781 0.222332,-0.22233 -0.04071,-3.14647 -0.584557,-6.49809 -1.222536,-7.534388 -1.323377,-34.939305 -0.131273,-35.676065 1.193446,-0.737591 12.507458,1.755208 20.636655,4.546843 15.513141,5.327345 30.339071,14.671419 44.219601,27.869492 5.24035,4.98271 9.80218,8.7852 10.1374,8.44999 0.3352,-0.33521 0.60947,-1.81641 0.60947,-3.29156 0,-4.39556 7.15743,-31.069855 11.50092,-42.861591 8.67964,-23.56356 28.1965,-62.16548711 31.42397,-62.1527063 1.64019,0.006491 2.00207,0.5530782 11.38355,17.1936513 12.86094,22.812319 23.80164,51.156752 27.86107,72.180572 3.44587,17.846174 2.50296,17.139294 9.26773,6.947781 13.43709,-20.243758 27.73414,-31.463287 45.32216,-35.566294 4.2201,-0.98448 5.90608,-1.033563 6.94023,-0.202045 0.98573,0.792573 1.70484,5.539687 2.58314,17.052203 1.11489,14.613669 0.95341,23.109149 -0.61742,32.482959 l -0.58781,3.50771 10.38891,-3.30874 c 17.29704,-5.50889 41.32485,-9.8121 68.9332,-12.345429 5.96919,-0.547734 7.00855,-0.413922 7.53988,0.970698 1.46899,3.828131 -15.50116,39.985501 -27.15366,57.854831 -15.58625,23.90183 -37.65871,45.51079 -58.24827,57.02512 l -6.25242,3.49656 8.48336,2.57441 c 13.91871,4.22385 25.37095,9.40377 38.37224,17.35601 10.16285,6.2161 24.28606,17.03279 23.88675,18.2944 -0.84698,2.67604 -32.60911,11.00888 -51.79433,13.58829 -17.82127,2.39605 -44.79115,1.59199 -58.85964,-1.7548 -19.16772,-4.55985 -35.37445,-11.83396 -50.44999,-22.6436 l -7.91072,-5.67224 -8.34024,6.17457 c -14.61415,10.81937 -33.44534,19.16662 -53.0836,23.53021 -11.66111,2.59109 -42.51263,3.30341 -56.586132,1.30651 z m 51.330132,-4.75246 c 21.51938,-3.75266 45.27557,-14.13656 59.39312,-25.96089 l 2.70217,-2.26324 h -13.90158 c -23.09658,0 -44.58128,-3.88174 -64.48329,-11.65051 -7.90104,-3.08418 -10.631002,-3.7413 -13.582415,-3.26935 -7.20011,1.15135 -24.469601,7.40804 -34.841279,12.62289 -10.689826,5.37484 -30.367716,18.26232 -30.511233,19.9825 -0.191269,2.29252 34.543828,10.2464 52.019854,11.91186 11.557436,1.10143 32.904733,0.4229 43.204653,-1.37326 z m 190.04439,-1.4492 c 6.57207,-1.08773 16.89621,-3.30177 22.94252,-4.92009 6.04632,-1.61831 11.97917,-3.16464 13.18413,-3.43628 1.20496,-0.27164 2.06099,-0.88339 1.90231,-1.35946 -0.1587,-0.47607 -4.15577,-3.6336 -8.8824,-7.01673 -15.23432,-10.90413 -37.18975,-21.19338 -53.08492,-24.87789 l -7.20943,-1.67114 -8.56356,3.40639 c -10.81757,4.30298 -23.3326,7.85333 -34.3739,9.7514 -11.16173,1.91878 -36.0623,3.66057 -41.57994,2.9085 l -4.30512,-0.58679 2.38985,1.96587 c 9.26699,7.62298 24.90085,16.12034 38.46425,20.90619 7.7089,2.72009 23.61593,6.21468 32.75318,7.19552 8.60719,0.92392 34.83632,-0.35774 46.36303,-2.26549 z m -134.0493,-32.09033 c -4.20064,-2.27952 -21.60362,-7.80675 -29.89419,-9.49447 -11.18512,-2.27697 -26.57797,-3.45695 -35.74227,-2.73993 -7.30157,0.57129 -7.80959,0.73777 -5.67085,1.85836 3.78591,1.98364 20.91933,6.82787 30.08424,8.50589 11.01965,2.0176 22.4126,3.07915 34.27141,3.19327 8.95202,0.0861 9.3937,0.002 6.95166,-1.32312 z m 45.2847,-0.46573 c 16.84835,-1.70436 45.0227,-8.50298 48.1372,-11.61577 0.63695,-0.63659 -5.26435,-0.79373 -17.68486,-0.47089 -20.2689,0.52683 -27.68239,1.77141 -44.22384,7.4243 -14.65046,5.00665 -15.14719,5.58053 -4.8693,5.62552 4.80762,0.021 13.19598,-0.41237 18.6408,-0.96316 z m -23.57755,-13.26424 c 8.18495,-12.32977 16.07403,-28.45037 20.71293,-42.32491 2.10614,-6.29927 3.64207,-11.64049 3.41318,-11.86938 -0.58442,-0.58441 -6.17622,6.45333 -11.87209,14.94198 -8.76622,13.06442 -19.34303,36.74761 -20.96317,46.93993 -0.61819,3.88899 -0.54797,4.09101 0.98305,2.8277 0.90685,-0.74827 4.3836,-5.48017 7.7261,-10.51532 z m -24.68158,3.0334 C 163.39488,203.30423 154.67805,184.37719 149.6615,159.53799 149.06598,156.5893 136.3045,145.5967 124.75,138.07949 99.188188,121.4493 64.832217,110.31023 24.854406,105.69082 17.756561,104.87067 10.584881,104.19911 8.9173383,104.19847 l -3.0318946,-0.001 3.366084,8.34774 c 18.6559963,46.26594 46.3519103,80.47956 81.3702263,100.519 l 8.534716,4.88405 8.00413,-1.07719 c 19.19538,-2.58329 45.7521,0.72488 66.31326,8.26066 4.74785,1.74012 8.97363,3.20294 9.39061,3.25073 0.41699,0.0478 -1.5758,-2.81678 -4.42843,-6.3657 z m 9.24792,0.47797 c -5.42813,-18.29746 -17.89293,-41.69105 -28.90575,-54.24952 l -3.77227,-4.30173 0.89529,4.09157 c 2.53769,11.5974 9.63193,27.78719 17.36684,39.63294 4.72601,7.23771 14.58144,19.84542 15.51315,19.84542 0.21537,0 -0.27839,-2.25841 -1.09726,-5.01868 z m 44.73711,-4.57866 c 12.50954,-2.56426 32.04026,-3.449 43.19567,-1.95676 l 8.43187,1.12791 6.38518,-3.5381 c 25.4221,-14.08672 47.74979,-36.24384 64.98003,-64.48363 7.60284,-12.46083 21.22602,-41.3262 21.22602,-44.97462 0,-2.20179 -34.8569,2.39861 -54.96647,7.25445 -32.69921,7.89584 -58.42023,20.27507 -80.08203,38.54253 -6.72532,5.67149 -7.56879,6.77213 -8.8857,11.59489 -6.2688,22.95755 -13.81786,40.75397 -23.75257,55.99516 -2.93597,4.50418 -5.33813,8.32658 -5.33813,8.49423 0,0.16764 4.25177,-1.11936 9.44837,-2.85999 5.19661,-1.74064 13.9076,-4.07887 19.35776,-5.19607 z m -31.25358,-21.60544 c 5.15885,-10.89045 14.18854,-24.72359 22.48701,-34.44928 5.18999,-6.08259 5.97313,-7.5481 6.8962,-12.90517 1.56793,-9.09962 1.29297,-35.96252 -0.48422,-47.30585 C 226.93161,81.641252 220.75752,61.683246 211.2832,40.932645 205.51097,28.290305 194.21994,7.6475095 193.07718,7.6475095 c -0.36334,0 -3.28408,4.8394395 -6.49057,10.7543105 -16.37231,30.20137 -27.15435,59.427767 -32.35653,87.70737 -1.22775,6.67423 -1.68214,14.28737 -1.71421,28.72154 l -0.0437,19.6401 6.53923,7.60415 c 12.60776,14.66093 23.76096,33.75981 30.30579,51.89608 l 2.18485,6.0544 2.62004,-7.18643 c 1.44101,-3.95253 4.61143,-11.39031 7.04536,-16.5284 z m -53.38551,-63.64027 0.0895,-17.41199 -9.64884,-9.59327 C 120.99056,88.532324 101.76863,77.702043 80.537834,73.163567 l -3.106801,-0.664136 0.01657,8.918388 c 0.02139,11.520315 1.576388,26.190571 3.094643,29.195841 0.908011,1.79733 4.139443,3.53354 13.617718,7.31664 19.325076,7.71329 36.715736,17.81824 47.796926,27.7727 2.62884,2.36154 4.99478,4.31297 5.25767,4.33653 0.26288,0.0235 0.51822,-7.79258 0.56742,-17.36917 z m 92.96788,12.52328 c 7.2608,-6.4192 23.65605,-16.78759 35.46984,-22.43121 6.07193,-2.90064 11.68513,-5.61884 12.47378,-6.0404 2.82885,-1.51218 3.93361,-11.0695 3.38153,-29.253641 -0.28734,-9.463792 -0.77588,-18.338502 -1.08565,-19.721575 l -0.56324,-2.51468 -5.40703,1.403425 c -15.2415,3.956017 -28.27504,14.924867 -41.14246,34.624951 l -7.75978,11.88023 v 12.117 c 0,6.66433 -0.27637,14.76111 -0.61415,17.99284 -0.33778,3.23172 -0.29624,5.87585 0.0923,5.87585 0.38855,0 2.70823,-1.76975 5.15486,-3.93279 z"
   id="path256" /></svg>
