<?xml version="1.0" encoding="UTF-8" standalone="no"?>
<!DOCTYPE svg PUBLIC "-//W3C//DTD SVG 1.1//EN" "http://www.w3.org/Graphics/SVG/1.1/DTD/svg11.dtd">
<svg width="100%" height="100%" viewBox="0 0 1553 600" version="1.1" xmlns="http://www.w3.org/2000/svg" xmlns:xlink="http://www.w3.org/1999/xlink" xml:space="preserve" xmlns:serif="http://www.serif.com/" style="fill-rule:evenodd;clip-rule:evenodd;stroke-linecap:round;stroke-linejoin:round;stroke-miterlimit:1.5;">
    <g id="Schrift--Farbe-" serif:id="Schrift (Farbe)" transform="matrix(1.91045,0,0,2.16433,-183.95,-240)">
        <g id="Strich" transform="matrix(0.876605,0,0,0.866477,70.0445,34.7461)">
            <path d="M455.103,393.312L536.864,393.132L496.525,393.221C503.849,393.185 502.72,404.209 496.254,404.208C489.162,404.207 489.128,393.213 496.525,393.221" style="fill:none;stroke:rgb(105,125,101);stroke-width:5.47px;"/>
        </g>
        <g id="N" transform="matrix(0.876605,0,0,0.866477,69.7287,34.434)">
            <path d="M237.408,354.677L237.633,273.185L286.371,350.399L287.384,272.059L286.371,350.399L237.633,273.185L237.408,354.677Z" style="fill:none;stroke:rgb(105,125,101);stroke-width:6.08px;"/>
        </g>
        <g id="a" transform="matrix(0.876605,0,0,0.866477,69.7287,34.434)">
            <path d="M353.905,301.662C353.181,319.713 355.075,336.363 354.355,352.313L354.367,334.983C347.279,345.794 338.157,349.833 328.83,350.193C314.486,350.746 305.562,340.932 304.17,325.86C303.14,314.709 312.496,300.745 328.801,300.357C338.979,300.115 348.225,307.374 353.812,317.204L353.905,301.662Z" style="fill:none;stroke:rgb(105,125,101);stroke-width:6.08px;"/>
        </g>
        <g id="t">
            <g transform="matrix(0.876605,0,0,0.866477,69.7287,34.434)">
                <path d="M394.426,271.609C393.645,329.352 391.152,355.097 410.861,350.429C416.498,349.093 419.552,343.466 420.426,337.793" style="fill:none;stroke:rgb(105,125,101);stroke-width:6.08px;"/>
            </g>
            <g transform="matrix(0.876605,0,0,0.866477,69.7287,34.434)">
                <path d="M371.464,300.827L421.214,301.052" style="fill:none;stroke:rgb(105,125,101);stroke-width:6.08px;"/>
            </g>
        </g>
        <g id="a1" serif:id="a" transform="matrix(0.876605,0,0,0.866477,187.045,34.9217)">
            <path d="M353.905,301.662C353.181,319.713 355.075,336.363 354.355,352.313L354.367,334.983C347.279,345.794 338.157,349.833 328.83,350.193C314.486,350.746 305.562,340.932 304.17,325.86C303.14,314.709 312.496,300.745 328.801,300.357C338.979,300.115 348.225,307.374 353.812,317.204L353.905,301.662Z" style="fill:none;stroke:rgb(105,125,101);stroke-width:6.08px;"/>
        </g>
        <g id="m" transform="matrix(0.876605,0,0,0.866477,69.7287,34.434)">
            <path d="M504.169,300.939L504.507,352.603C503.357,312.837 506.143,301.656 516.561,301.448C533.608,301.109 528.633,318.063 530.283,352.04C530.479,318.08 524.546,300.567 543.231,300.382C558.315,300.234 555.003,316.219 555.608,351.59" style="fill:none;stroke:rgb(105,125,101);stroke-width:6.08px;"/>
        </g>
        <g id="a2" serif:id="a" transform="matrix(0.876605,0,0,0.866477,304.559,34.5315)">
            <path d="M353.905,301.662C353.181,319.713 355.075,336.363 354.355,352.313L354.367,334.983C347.279,345.794 338.157,349.833 328.83,350.193C314.486,350.746 305.562,340.932 304.17,325.86C303.14,314.709 312.496,300.745 328.801,300.357C338.979,300.115 348.225,307.374 353.812,317.204L353.905,301.662Z" style="fill:none;stroke:rgb(105,125,101);stroke-width:6.08px;"/>
        </g>
        <g id="r" transform="matrix(0.876605,0,0,0.866477,69.7287,34.434)">
            <path d="M639.576,300.827C652.325,300.438 650.676,324.061 650.044,352.266C649.543,314.418 658.904,292.364 688.876,304.541" style="fill:none;stroke:rgb(105,125,101);stroke-width:6.08px;"/>
        </g>
        <g id="a3" serif:id="a" transform="matrix(0.876605,0,0,0.866477,422.271,34.9217)">
            <path d="M353.905,301.662C353.181,319.713 355.075,336.363 354.355,352.313L354.367,334.983C347.279,345.794 338.157,349.833 328.83,350.193C314.486,350.746 305.562,340.932 304.17,325.86C303.14,314.709 312.496,300.745 328.801,300.357C338.979,300.115 348.225,307.374 353.812,317.204L353.905,301.662Z" style="fill:none;stroke:rgb(105,125,101);stroke-width:6.08px;"/>
        </g>
    </g>
    <g id="M--Farbe-" serif:id="M (Farbe)" transform="matrix(1.91045,0,0,2.16433,-183.95,-240)">
        <g id="R" transform="matrix(-1,0,0,1,990.058,-0.439674)">
            <g id="left-bottom" serif:id="left bottom" transform="matrix(0.876605,0,0,0.866477,52.4399,34.4927)">
                <path d="M496.02,224.138C464.018,208.399 434.646,213.097 407.522,235.253C445.284,247.882 474.39,243.399 496.02,224.138Z" style="fill:none;stroke:rgb(105,125,101);stroke-width:6.06px;"/>
            </g>
            <g id="left-middle" serif:id="left middle" transform="matrix(0.876605,0,0,0.866477,52.4399,34.4927)">
                <path d="M496.02,224.138C485.659,180.43 452.259,157.117 396.125,153.93C414.063,202.75 446.566,227.469 496.02,224.138Z" style="fill:none;stroke:rgb(105,125,101);stroke-width:6.06px;"/>
            </g>
            <g id="L-U" serif:id="L U" transform="matrix(0.876605,0,0,0.866477,52.4399,34.4927)">
                <path id="L-U1" serif:id="L U" d="M473.085,160.746C466.005,148.889 458.773,136.673 442.448,134.047" style="fill:none;stroke:rgb(105,125,101);stroke-width:6.06px;"/>
                <path id="left-up" serif:id="left up" d="M442.421,162.461C439.286,149.38 441.796,144.017 441.998,134.227" style="fill:none;stroke:rgb(105,125,101);stroke-width:6.06px;"/>
            </g>
            <g id="line-L" serif:id="line L" transform="matrix(0.876605,0,0,0.866477,52.4399,34.4927)">
                <path d="M496.02,224.138C487.841,231.87 473.816,245.236 428.095,242.888C385.595,240.705 307.901,239.23 265.19,242.278C203.123,246.707 133.796,241.461 69.973,239.095" style="fill:none;stroke:rgb(105,125,101);stroke-width:6.06px;"/>
            </g>
        </g>
        <g id="L">
            <g id="left-bottom1" serif:id="left bottom" transform="matrix(0.876605,0,0,0.866477,69.7287,34.434)">
                <path d="M496.02,224.138C464.018,208.399 434.646,213.097 407.522,235.253C445.284,247.882 474.39,243.399 496.02,224.138Z" style="fill:none;stroke:rgb(105,125,101);stroke-width:6.06px;"/>
            </g>
            <g id="left-middle1" serif:id="left middle" transform="matrix(0.876605,0,0,0.866477,69.7287,34.434)">
                <path d="M496.02,224.138C485.659,180.43 452.259,157.117 396.125,153.93C414.063,202.75 446.566,227.469 496.02,224.138Z" style="fill:none;stroke:rgb(105,125,101);stroke-width:6.06px;"/>
            </g>
            <g id="L-U2" serif:id="L U" transform="matrix(0.876605,0,0,0.866477,69.7287,34.434)">
                <path id="L-U3" serif:id="L U" d="M473.626,161.556C463.303,148.799 450.579,140.095 434.254,137.468" style="fill:none;stroke:rgb(105,125,101);stroke-width:6.06px;"/>
                <path id="left-up1" serif:id="left up" d="M436.298,160.66C434.243,156.134 434.052,147.259 434.254,137.468" style="fill:none;stroke:rgb(105,125,101);stroke-width:6.06px;"/>
            </g>
            <g id="line-L1" serif:id="line L" transform="matrix(0.876605,0,0,0.866477,69.7287,34.434)">
                <path d="M496.02,224.138C487.841,231.87 473.816,245.236 428.095,242.888C385.595,240.705 307.901,239.23 265.19,242.278C203.123,246.707 133.796,241.461 69.973,239.095" style="fill:none;stroke:rgb(105,125,101);stroke-width:6.06px;"/>
            </g>
        </g>
        <g id="middle" transform="matrix(0.876605,0,0,0.866477,69.7287,34.434)">
            <path d="M496.02,224.138C465.232,194.087 465.746,153.215 495.738,102.154C522.964,145.849 525.823,186.82 496.02,224.138Z" style="fill:none;stroke:rgb(105,125,101);stroke-width:6.06px;"/>
        </g>
    </g>
    <g id="Frabe" transform="matrix(1.91045,0,0,2.16433,-183.95,-240)">
        <g transform="matrix(0.876605,0,0,0.866477,69.7287,34.434)">
            <path d="M833.596,243.305L829.851,243.738C830.908,232.833 823.186,222.533 804.633,221.489C797.466,226.12 793.356,218.846 794.497,216.12C796.708,210.84 806.389,213.705 805.393,218.1C813.634,218.521 820.115,220.246 824.52,224.504C822.405,216.537 816.513,208.28 806.727,199.723C799.884,200.285 798.657,192.569 801.924,190.499C806.584,187.545 810.938,191.638 809.824,197.634C814.028,201.472 818.125,205.526 821.638,210.745C823.157,208.032 822.782,201.403 821.35,192.592C815.905,189.603 818.125,183.086 823.093,183.16C830.103,183.265 829.055,191.556 824.371,192.625C824.982,198.06 826.839,206.118 824.719,212.426C823.548,215.906 825.574,218.57 826.758,221.048C828.944,225.625 829.541,227.215 831.637,232.716C835.398,223.884 833.945,221.638 836.121,208.579C836.807,204.462 838.782,191.827 838.729,187.062C838.549,170.737 831.279,158.096 816.74,159.239C813.058,164.372 806.311,160.932 807.544,155.722C808.797,150.428 816.962,152.409 817.388,156.357C820.376,157.197 823.719,157.611 827.493,157.506C827.403,153.193 824.746,148.104 818.991,142.847C812.003,141.496 812.75,134.317 815.991,132.551C819.747,130.504 827.513,134.881 821.509,141.353C824.689,143.905 828.913,147.907 831.147,153.692C832.451,150.673 833.82,148.154 834.557,143.928C830.811,140.188 834.856,133.526 839.93,135.314C843.646,136.623 844.19,144.979 837.486,144.615C835.16,152.635 830.994,160.643 835.51,165.579C838.853,169.233 840.487,179.308 842.025,185.1C854.19,159.212 864.144,134.07 856.288,114.936C848.269,113.614 850.033,106.349 854.019,105.04C859.382,103.279 863.105,109.361 858.593,114.288C860.767,116.769 862.273,120.269 862.634,125.519C864.433,119.531 868.632,112.972 872.306,106.033C867.911,97.731 875.834,95.29 879.494,97.186C883.406,99.213 881.169,108.405 874.657,107.372C871.395,112.426 869.783,116.753 869.038,120.699C872.456,120.111 875.173,119.719 875.26,118.181C875.625,111.716 883.486,111.78 885.375,114.232C889.008,118.947 881.419,123.836 876.746,120.483C871.112,122.604 863.414,128.646 861.583,140.117C859.061,155.913 855.929,157.836 853.262,166.298C861.41,161.531 868.308,155.828 871.416,147.281C867.861,139.696 872.918,137.528 876.066,138.556C879.672,139.734 880.884,145.876 875.807,147.46C873.325,150.807 871.518,153.622 870.767,155.709C874.028,155.971 876.951,155.306 879.268,152.972C878.794,147.629 886.9,145.297 889.194,150.187C891.212,154.49 886.44,158.28 880.492,155.925C878.459,157.38 876.675,158.723 870.625,159.42C867.289,159.804 864.334,162.202 862.008,163.702C866.382,163.507 870.781,164.002 875.234,166.01C876.853,161.567 885.08,163.047 883.545,168.686C882.468,172.639 877.215,174.052 874.165,168.708C856.436,163.931 851.16,169.44 848.334,179.368C845.738,188.487 839.431,210.791 838.413,220.1C842.585,215.414 845.33,215.276 846.742,210.624C847.83,207.036 851.158,202.1 853.911,195.401C854.523,193.912 855.246,190.237 855.352,184.452C850.758,180.964 854.874,175.486 858.784,176.216C862.258,176.865 863.777,183.334 858.305,184.524C858.45,187.753 858.144,190.477 857.502,192.822C860.115,190.736 863.104,188.873 866.015,188.069C864.983,183.041 873.123,180.683 875.038,184.941C877.282,189.929 870.838,193.021 867.185,190.017C859.527,193.659 852.261,200.372 850.774,209.861C856.767,206.975 864.924,203.401 874.188,197.63C881.638,192.989 890.81,188.676 896.487,182.637C900.308,178.572 899.452,167.965 898.073,163.03C891.426,161.253 894.599,153.637 898.923,153.503C902.308,153.398 906.04,158.501 901.39,162.893C903.382,166.9 903.324,171.186 902.378,176.29C905.305,173.816 910.451,166.256 915.149,155.718C911.862,151.067 917.436,144.503 922.041,148.152C925.724,151.07 924.075,157.257 917.92,156.919C915.883,159.923 914.125,162.633 913.466,167.505C915.555,167.317 917.452,167.321 919.246,167.428C922.799,163.861 928.252,165.166 927.948,169.539C927.65,173.83 919.667,175.572 918.923,170.601C915.592,170.209 912.66,169.977 911.18,171.725C906.283,177.509 903.114,181.335 900.086,184.956C905.489,184.576 908.168,185.021 914.897,182.474C917.143,181.624 921.279,181.314 923.857,180.971C929.158,180.265 934.23,174.458 937.689,170.909C938.434,163.352 944.575,164.539 946.443,166.703C949.61,170.37 945.717,174.064 939.13,173.358C937.666,176.388 935.344,178.911 932.602,180.466C933.88,180.53 936.367,180.787 943.521,180.465C949.35,175.283 953.615,179.312 953.469,182.063C953.335,184.605 950.307,187.376 943.588,183.448C928.251,182.897 920.528,183.903 918.045,185.539C920.944,186.846 924.436,188.983 927.532,192.159C933.139,190.054 937.199,193.977 934.77,198.445C931.8,203.908 924.471,197.632 926.38,194.393C922.294,192.301 918.311,189.642 914.422,186.469C908.566,187.822 906.051,188.325 899.049,189.09C888.671,190.225 880.343,200.38 864.716,206.855C871.503,209.788 879.243,210.682 891.154,202.677C891.421,199.952 896.821,195.348 900.352,200.353C902.22,202.999 899.433,209.071 891.802,204.982C891.236,206.026 889.989,207.173 888.149,207.748C885.981,208.427 882.344,209.349 883.446,211.033C884.317,212.364 888.21,212.986 891.802,212.618C899.047,210.525 902.747,216.385 899.534,219.372C896.907,221.814 892.184,221.161 891.154,215.283C885.97,215.583 882.121,214.721 881.357,211.177C877.875,211.249 875.714,211.321 875.306,211.393C876.402,214.587 877.835,216.963 879.7,218.813C884.278,217.568 888.907,222.87 885.423,225.659C878.34,231.33 876.232,221.673 876.856,220.884C872.724,210.337 862.235,204.281 845.129,219.306C837.737,225.798 833.488,231.618 833.596,243.305ZM895.8,200.156C894.866,200.156 894.107,200.882 894.107,201.776C894.107,202.671 894.866,203.397 895.8,203.397C896.734,203.397 897.493,202.671 897.493,201.776C897.493,200.882 896.734,200.156 895.8,200.156ZM896.16,214.419C895.186,214.419 894.395,215.161 894.395,216.076C894.395,216.99 895.186,217.732 896.16,217.732C897.134,217.732 897.925,216.99 897.925,216.076C897.925,215.161 897.134,214.419 896.16,214.419ZM899.006,157.006C898.131,157.006 897.421,157.603 897.421,158.338C897.421,159.074 898.131,159.671 899.006,159.671C899.88,159.671 900.591,159.074 900.591,158.338C900.591,157.603 899.88,157.006 899.006,157.006ZM871.056,185.604C870.221,185.604 869.543,186.314 869.543,187.189C869.543,188.064 870.221,188.774 871.056,188.774C871.89,188.774 872.568,188.064 872.568,187.189C872.568,186.314 871.89,185.604 871.056,185.604ZM942.372,167.595C941.418,167.595 940.643,168.386 940.643,169.36C940.643,170.334 941.418,171.125 942.372,171.125C943.326,171.125 944.101,170.334 944.101,169.36C944.101,168.386 943.326,167.595 942.372,167.595ZM857.981,178.545C857.047,178.545 856.288,179.255 856.288,180.129C856.288,181.004 857.047,181.714 857.981,181.714C858.915,181.714 859.674,181.004 859.674,180.129C859.674,179.255 858.915,178.545 857.981,178.545ZM874.982,141.158C874.007,141.158 873.217,141.932 873.217,142.886C873.217,143.841 874.007,144.615 874.982,144.615C875.956,144.615 876.746,143.841 876.746,142.886C876.746,141.932 875.956,141.158 874.982,141.158ZM884.562,150.378C883.469,150.378 882.581,151.217 882.581,152.251C882.581,153.285 883.469,154.124 884.562,154.124C885.656,154.124 886.543,153.285 886.543,152.251C886.543,151.217 885.656,150.378 884.562,150.378ZM930.81,194.321C929.876,194.321 929.117,194.95 929.117,195.725C929.117,196.501 929.876,197.13 930.81,197.13C931.744,197.13 932.503,196.501 932.503,195.725C932.503,194.95 931.744,194.321 930.81,194.321ZM879.232,165.794C878.258,165.794 877.467,166.617 877.467,167.631C877.467,168.645 878.258,169.468 879.232,169.468C880.206,169.468 880.997,168.645 880.997,167.631C880.997,166.617 880.206,165.794 879.232,165.794ZM881.141,115.008C880.107,115.008 879.268,115.848 879.268,116.881C879.268,117.915 880.107,118.754 881.141,118.754C882.174,118.754 883.014,117.915 883.014,116.881C883.014,115.848 882.174,115.008 881.141,115.008ZM948.027,180.129C946.973,180.129 946.118,180.807 946.118,181.642C946.118,182.477 946.973,183.155 948.027,183.155C949.08,183.155 949.936,182.477 949.936,181.642C949.936,180.807 949.08,180.129 948.027,180.129ZM923.282,167.667C922.288,167.667 921.481,168.426 921.481,169.36C921.481,170.294 922.288,171.053 923.282,171.053C924.276,171.053 925.083,170.294 925.083,169.36C925.083,168.426 924.276,167.667 923.282,167.667ZM881.897,220.686C880.804,220.686 879.916,221.574 879.916,222.667C879.916,223.76 880.804,224.648 881.897,224.648C882.99,224.648 883.878,223.76 883.878,222.667C883.878,221.574 882.99,220.686 881.897,220.686ZM919.248,150.378C918.135,150.378 917.231,151.137 917.231,152.071C917.231,153.005 918.135,153.764 919.248,153.764C920.361,153.764 921.265,153.005 921.265,152.071C921.265,151.137 920.361,150.378 919.248,150.378ZM818.469,134.746C817.395,134.746 816.524,135.731 816.524,136.943C816.524,138.156 817.395,139.141 818.469,139.141C819.542,139.141 820.414,138.156 820.414,136.943C820.414,135.731 819.542,134.746 818.469,134.746ZM799.775,216.22C798.761,216.22 797.938,217.011 797.938,217.985C797.938,218.959 798.761,219.749 799.775,219.749C800.789,219.749 801.612,218.959 801.612,217.985C801.612,217.011 800.789,216.22 799.775,216.22ZM823.403,185.388C822.23,185.388 821.278,186.324 821.278,187.477C821.278,188.63 822.23,189.566 823.403,189.566C824.576,189.566 825.528,188.63 825.528,187.477C825.528,186.324 824.576,185.388 823.403,185.388ZM811.913,155.565C811.079,155.565 810.401,156.21 810.401,157.006C810.401,157.801 811.079,158.446 811.913,158.446C812.748,158.446 813.426,157.801 813.426,157.006C813.426,156.21 812.748,155.565 811.913,155.565ZM804.89,192.736C803.797,192.736 802.909,193.64 802.909,194.753C802.909,195.866 803.797,196.77 804.89,196.77C805.983,196.77 806.871,195.866 806.871,194.753C806.871,193.64 805.983,192.736 804.89,192.736ZM876.602,99.088C875.251,99.088 874.153,100.153 874.153,101.465C874.153,102.777 875.251,103.843 876.602,103.843C877.954,103.843 879.052,102.777 879.052,101.465C879.052,100.153 877.954,99.088 876.602,99.088ZM837.631,137.916C836.398,137.916 835.397,138.626 835.397,139.501C835.397,140.375 836.398,141.086 837.631,141.086C838.863,141.086 839.864,140.375 839.864,139.501C839.864,138.626 838.863,137.916 837.631,137.916ZM855.856,107.877C854.822,107.877 853.983,108.732 853.983,109.786C853.983,110.839 854.822,111.695 855.856,111.695C856.889,111.695 857.729,110.839 857.729,109.786C857.729,108.732 856.889,107.877 855.856,107.877Z" style="fill:rgb(105,125,101);"/>
        </g>
        <g transform="matrix(0.876605,0,0,0.866477,69.7287,34.434)">
            <circle cx="800.803" cy="129.725" r="2.213" style="fill:rgb(105,125,101);"/>
        </g>
        <g transform="matrix(0.876605,0,0,0.866477,69.7287,34.434)">
            <circle cx="762.552" cy="106.457" r="2.213" style="fill:rgb(105,125,101);"/>
        </g>
        <g transform="matrix(0.876605,0,0,0.866477,69.7287,34.434)">
            <circle cx="723.436" cy="104.368" r="2.213" style="fill:rgb(105,125,101);"/>
        </g>
        <g transform="matrix(0.876605,0,0,0.866477,69.7287,34.434)">
            <circle cx="696.782" cy="139.81" r="1.565" style="fill:rgb(105,125,101);"/>
        </g>
        <g transform="matrix(0.876605,0,0,0.866477,69.7287,34.434)">
            <path d="M713.444,165.983C697.714,164.411 690.237,150.197 687.957,131.142C694.984,128.58 702.241,131.174 710.012,141.069C714.015,146.166 716.322,153.865 716.961,164.435C722.34,172.107 727.399,180.401 730.457,196.388C732.007,193.399 734.484,189.094 737.498,183.947C739.648,180.275 742.103,177.165 744.538,174.565C747.787,160.465 742.535,146.903 730.609,133.763C715.419,127.728 710.22,103.362 717.346,93.578C720.127,89.759 730.187,92.45 734.934,110.215C736.324,115.417 736.45,122.609 735.814,132.497C741.358,145.308 744.403,152.54 746.452,152.27C748.889,151.948 748.055,150.392 749.18,137.562C741.651,115.771 761.132,91.093 766.768,92.68C772.543,94.306 770.638,116.868 757.904,130.386C753.512,135.049 750.147,142.945 749.706,154.269C749.454,160.748 748.82,167.073 747.603,172.14C749.69,170.904 752.47,169.955 754.533,168.646C760.495,164.861 765.621,159.933 771.129,153.601C775.539,133.029 803.138,114.592 808.99,123.444C814.377,131.594 799.995,145.941 772.818,156.275C763.857,167.92 755.386,169.787 749.405,175.497C734.713,189.522 729.951,202.961 727.232,242.522L723.714,242.803C726.261,226.749 729.09,204.755 727.212,196.959C724.429,185.402 720.583,175.044 713.444,165.983ZM750.646,124.153C750.362,133.925 756.047,111.204 758.995,112.57C761.422,113.694 754.897,117.262 753.27,129.105C752.096,137.644 768.586,112.034 766.673,99.206C765.701,92.689 751.054,110.135 750.646,124.153ZM777.613,145.999C774.448,152.529 793.872,131.367 795.547,134.151C796.926,136.443 787.446,141.117 779.457,150.01C773.697,156.422 810.059,135.283 806.612,125.852C804.429,119.878 784.265,132.275 777.613,145.999ZM725.597,126.375C731.896,133.85 722.104,111.778 725.28,111.091C727.894,110.526 726.346,117.292 731.755,127.953C735.912,136.146 735.079,103.538 722.417,95.872C716.619,92.361 716.531,115.617 725.597,126.375ZM706.986,160.128C716.154,165.847 697.212,147.335 699.471,143.697C701.156,140.983 702.125,145.985 709.773,154.54C716.732,162.323 707.8,136.721 692.633,132.658C687.336,131.24 696.881,153.823 706.986,160.128Z" style="fill:rgb(105,125,101);"/>
        </g>
        <g transform="matrix(0.876605,0,0,0.866477,69.7287,34.434)">
            <path d="M600.506,241.852C607.508,236.103 611.425,229.464 613.854,223.115C615.61,218.524 614.524,208.925 613.486,201.341C613.334,200.233 613.425,199.007 610.999,197.87C603.694,194.448 607.085,186.758 610.579,176.256C617.661,186.091 622.738,190.381 617.206,197.579C616.451,198.562 614.725,198.495 616.178,201.918C618.032,206.286 618.266,215.452 616.284,222.014C624.875,214.341 628.433,210.656 635.816,206.518C640.722,203.768 645.457,185.178 645.625,171.805C645.645,170.254 644.021,169.49 643.255,168.246C640.843,164.332 642.802,155.813 650.113,147.154C653.39,153.939 655.579,162.046 652.091,167.42C650.89,169.271 649.055,170.023 649.018,171.761C648.827,180.654 648.004,180.975 647.807,181.443C656.039,177.774 661.361,168.997 665.903,154.415C666.299,153.145 665.647,151.439 665.302,150.659C661.111,141.191 668.13,130.688 671.954,122.949C676.761,134.279 674.034,146.058 671.032,150.323C666.575,156.655 664.513,165.034 662.618,169.283C666.356,168.947 672.871,165.596 673.625,160.927C674.362,156.368 680.642,152.339 687.226,150.438C686.774,155.207 687.699,161.815 677.518,164.947C675.023,165.715 673.738,166.696 672.588,167.497C667.272,171.198 656.116,177.344 649.701,184.837C645.688,189.524 644.02,195.984 641.18,204.495C647.434,203.632 651.074,204.19 654.838,200.115C662.311,192.026 672.216,194.109 681.117,200C678.363,202.634 676.621,202.458 673.116,204.798C668.176,208.095 659.991,207.701 655.29,205.96C652.807,205.041 651.7,205.616 649.94,205.936C641.436,207.48 634.487,209.923 632.132,213.312C637.117,214.16 639.519,214.789 642.967,217.634C643.967,218.46 645.685,219.023 649.5,217.724C658.674,214.6 661.52,226.627 662.964,229.736C652.214,229.039 644.559,228.01 644.58,220.689C630.548,214.49 626.872,215.901 621.851,221.696C617.827,226.34 610.835,234.393 605.219,242.184L600.506,241.852Z" style="fill:rgb(105,125,101);"/>
        </g>
        <g transform="matrix(0.876605,0,0,0.866477,69.7287,34.434)">
            <path d="M386.888,240.564L382.174,240.896C376.559,233.105 369.567,225.052 365.543,220.408C360.522,214.613 356.846,213.202 342.814,219.401C342.835,226.722 335.179,227.751 324.43,228.448C325.874,225.339 328.719,213.312 337.894,216.436C341.709,217.735 343.427,217.172 344.427,216.346C347.875,213.501 350.277,212.872 355.261,212.024C352.907,208.635 345.958,206.192 337.454,204.647C335.694,204.328 334.586,203.753 332.104,204.672C327.402,206.413 319.217,206.807 314.278,203.51C310.773,201.17 309.03,201.346 306.277,198.712C315.178,192.821 325.083,190.738 332.555,198.827C336.32,202.902 339.959,202.344 346.214,203.207C343.374,194.696 341.706,188.236 337.693,183.549C331.278,176.056 320.121,169.91 314.806,166.209C313.656,165.408 312.371,164.427 309.876,163.659C299.694,160.527 300.62,153.919 300.168,149.15C306.752,151.051 313.032,155.079 313.768,159.639C314.523,164.308 321.038,167.659 324.776,167.995C322.881,163.746 320.819,155.367 316.362,149.035C313.36,144.77 310.633,132.991 315.44,121.661C319.263,129.4 326.283,139.903 322.092,149.37C321.747,150.151 321.095,151.856 321.491,153.127C326.033,167.709 331.355,176.486 339.586,180.155C339.39,179.687 338.567,179.366 338.376,170.473C338.339,168.735 336.504,167.983 335.303,166.132C331.815,160.758 334.003,152.651 337.281,145.866C344.592,154.525 346.551,163.044 344.139,166.958C343.373,168.202 341.749,168.966 341.768,170.517C341.937,183.89 346.672,202.48 351.578,205.23C358.96,209.368 362.518,213.053 371.11,220.726C369.128,214.164 369.362,204.998 371.216,200.63C372.669,197.207 370.942,197.273 370.187,196.291C364.655,189.093 369.733,184.803 376.815,174.968C380.308,185.47 383.7,193.16 376.395,196.582C373.969,197.718 374.06,198.945 373.908,200.053C372.869,207.637 371.783,217.236 373.54,221.827C375.969,228.176 379.886,234.815 386.888,240.564Z" style="fill:rgb(105,125,101);"/>
        </g>
        <g transform="matrix(0.876605,0,0,0.866477,69.7287,34.434)">
            <circle cx="290.612" cy="138.522" r="1.565" style="fill:rgb(105,125,101);"/>
        </g>
        <g transform="matrix(0.876605,0,0,0.866477,69.7287,34.434)">
            <circle cx="263.958" cy="103.08" r="2.213" style="fill:rgb(105,125,101);"/>
        </g>
        <g transform="matrix(0.876605,0,0,0.866477,69.7287,34.434)">
            <circle cx="224.842" cy="105.169" r="2.213" style="fill:rgb(105,125,101);"/>
        </g>
        <g transform="matrix(0.876605,0,0,0.866477,69.7287,34.434)">
            <circle cx="186.591" cy="128.437" r="2.213" style="fill:rgb(105,125,101);"/>
        </g>
        <g transform="matrix(0.876605,0,0,0.866477,69.7287,34.434)">
            <path d="M273.95,164.694C266.811,173.756 262.965,184.114 260.181,195.671C258.304,203.467 261.132,225.461 263.679,241.515L260.162,241.233C257.443,201.673 252.681,188.234 237.989,174.209C232.008,168.499 223.537,166.632 214.576,154.986C187.399,144.653 173.017,130.305 178.404,122.156C184.255,113.303 211.854,131.741 216.265,152.313C224.224,161.538 232.134,168.697 239.902,170.041C238.684,164.974 237.94,159.46 237.687,152.981C237.246,141.657 233.882,133.76 229.49,129.098C216.755,115.58 214.851,93.017 220.626,91.392C226.262,89.805 245.743,114.483 238.213,136.274C239.339,149.104 238.504,150.66 240.942,150.982C242.99,151.252 246.036,144.02 251.579,131.209C250.944,121.321 251.069,114.129 252.46,108.927C257.207,91.162 267.267,88.471 270.048,92.29C277.174,102.074 271.975,126.44 256.785,132.475C244.859,145.615 239.607,159.177 242.856,173.277C245.29,175.877 247.745,178.987 249.895,182.659C252.91,187.806 255.236,192.096 256.785,195.085C259.844,179.098 265.054,170.819 270.433,163.147C271.071,152.577 273.379,144.878 277.381,139.781C285.152,129.886 292.41,127.292 299.436,129.854C297.157,148.909 289.679,163.123 273.95,164.694ZM280.407,158.84C290.513,152.535 300.058,129.951 294.761,131.37C279.594,135.433 270.662,161.034 277.621,153.252C285.269,144.697 286.238,139.695 287.923,142.409C290.181,146.047 271.239,164.559 280.407,158.84ZM261.797,125.086C270.863,114.328 270.775,91.073 264.977,94.584C252.315,102.25 251.482,134.858 255.638,126.665C261.047,116.004 259.499,109.238 262.114,109.803C265.29,110.49 255.497,132.562 261.797,125.086ZM236.747,122.865C236.34,108.847 221.693,91.401 220.721,97.918C218.808,110.746 235.297,136.356 234.124,127.817C232.497,115.974 225.971,112.406 228.399,111.282C231.347,109.916 237.032,132.636 236.747,122.865ZM209.781,144.711C203.129,130.987 182.965,118.59 180.782,124.564C177.335,133.995 213.696,155.134 207.937,148.722C199.948,139.829 190.467,135.155 191.847,132.862C193.522,130.079 212.946,151.241 209.781,144.711Z" style="fill:rgb(105,125,101);"/>
        </g>
        <g transform="matrix(0.876605,0,0,0.866477,69.7287,34.434)">
            <path d="M153.797,242.017C153.906,230.33 149.707,224.451 142.265,218.018C125.586,203.6 115.306,208.307 110.365,219.562C110.168,220.01 109.202,229.614 101.971,224.371C98.357,221.751 103.116,216.28 107.694,217.525C109.559,215.675 110.991,213.299 112.088,210.105C111.68,210.033 109.519,209.961 106.037,209.889C105.273,213.433 101.424,214.295 96.24,213.995C95.21,219.872 90.487,220.526 87.86,218.084C84.646,215.097 88.346,209.237 95.592,211.33C99.184,211.698 102.988,211.012 103.948,209.745C104.817,208.598 102.917,207.501 99.787,206.744C97.5,206.191 96.091,203.878 95.592,203.694C87.96,207.782 85.174,201.711 87.041,199.065C90.573,194.06 95.973,198.664 96.24,201.389C108.15,209.394 115.891,208.499 122.677,205.567C107.051,199.092 98.723,188.936 88.345,187.802C81.343,187.037 78.828,186.534 72.972,185.18C69.083,188.354 65.266,190.816 61.18,192.908C63.028,196.541 55.594,202.62 52.624,197.157C50.195,192.689 54.255,188.766 59.862,190.871C62.958,187.695 66.763,185.329 69.663,184.021C65.58,182.304 59.093,181.412 43.806,182.16C38.019,186.417 34.231,183.377 33.924,180.774C33.602,178.039 38.043,173.995 43.873,179.177C51.026,179.499 53.324,179.05 54.832,179.022C51.909,177.455 49.727,175.1 48.264,172.07C41.677,172.776 38.218,169.416 40.951,165.414C42.511,163.129 47.929,161.657 49.704,169.621C53.163,173.17 58.236,178.976 63.536,179.683C66.114,180.026 70.251,180.335 72.497,181.186C79.225,183.732 81.904,183.288 87.307,183.668C84.28,180.047 81.11,176.221 76.214,170.437C74.734,168.689 71.802,168.921 68.471,169.313C67.727,174.283 59.744,172.542 59.445,168.251C59.142,163.878 64.595,162.573 68.147,166.14C69.941,166.033 71.839,166.029 73.928,166.217C73.268,161.344 71.511,158.635 69.474,155.631C63.319,155.969 61.67,149.782 65.352,146.864C69.958,143.215 75.532,149.779 72.245,154.429C76.943,164.968 82.088,172.528 85.016,175.002C84.069,169.897 84.012,165.612 86.004,161.605C81.354,157.213 85.086,152.11 88.471,152.215C92.795,152.349 95.968,159.965 89.321,161.742C87.942,166.677 87.086,177.284 90.907,181.349C96.584,187.388 105.756,191.701 113.206,196.342C122.47,202.113 130.804,205.274 136.797,208.16C134.454,198.022 127.866,192.371 120.208,188.729C116.555,191.732 110.112,188.641 112.355,183.653C114.271,179.394 122.41,181.753 121.379,186.781C124.29,187.584 127.278,189.448 129.891,191.534C129.249,189.189 128.944,186.465 129.089,183.235C123.617,182.046 125.135,175.577 128.61,174.928C132.52,174.198 136.635,179.675 132.042,183.163C132.148,188.949 132.871,192.624 133.483,194.113C136.236,200.812 139.563,205.748 140.652,209.336C142.063,213.988 144.809,214.126 148.981,218.812C147.963,209.503 141.656,187.199 139.06,178.08C136.234,168.152 130.958,162.643 113.228,167.42C110.178,172.763 104.925,171.351 103.849,167.398C102.314,161.759 110.541,160.279 112.16,164.722C116.613,162.714 121.012,162.219 125.386,162.414C123.06,160.914 120.105,158.516 116.769,158.132C110.719,157.435 108.935,156.091 106.901,154.637C100.954,156.992 96.181,153.201 98.2,148.899C100.493,144.009 108.6,146.341 108.126,151.683C110.442,154.018 113.366,154.683 116.626,154.421C115.875,152.333 114.069,149.519 111.586,146.172C106.51,144.588 107.722,138.445 111.328,137.268C114.475,136.24 119.533,138.408 115.978,145.993C119.086,154.539 125.984,160.243 134.131,165.01C131.464,156.548 128.332,154.625 125.811,138.829C123.98,127.358 116.282,121.316 110.647,119.195C105.975,122.548 98.386,117.659 102.019,112.944C103.908,110.491 111.769,110.428 112.134,116.893C112.183,117.763 113.606,118.714 115.814,118.954C117.163,119.101 118.216,119.425 118.686,119.978C117.8,116.032 115.999,111.138 112.736,106.084C105.89,107.529 103.668,98.319 107.9,95.898C111.478,93.851 119.482,96.443 115.088,104.745C118.762,111.684 122.961,118.243 124.76,124.231C125.528,118.732 126.949,115.21 128.604,113.045C124.093,108.118 128.011,101.991 133.374,103.752C137.361,105.061 139.125,112.326 131.106,113.648C123.249,132.782 133.204,157.924 145.369,183.812C146.907,178.02 148.624,168.035 151.884,164.291C156.451,159.046 152.234,151.347 149.907,143.327C143.204,143.691 143.748,135.335 147.463,134.026C152.537,132.237 155.582,138.144 153.365,142.319C153.442,146.564 154.943,149.385 156.246,152.404C158.48,146.619 162.704,142.616 165.885,140.065C159.881,133.593 167.647,129.216 171.403,131.263C174.643,133.029 175.768,139.098 168.781,142.031C163.026,147.288 159.99,151.905 159.9,156.218C163.675,156.323 167.018,155.909 170.005,155.069C170.432,151.121 178.597,149.14 179.85,154.434C181.083,159.644 174.335,163.084 170.654,157.951C156.114,156.808 148.845,169.449 148.665,185.774C148.612,190.538 150.586,203.174 151.273,207.29C153.449,220.35 151.996,222.596 155.757,231.428C157.853,225.927 158.45,224.337 160.636,219.76C161.82,217.282 163.845,214.618 162.675,211.138C160.554,204.83 162.412,196.772 163.023,191.337C158.339,190.268 157.291,181.977 164.301,181.872C169.269,181.798 171.488,188.315 166.043,191.304C164.612,200.115 164.236,206.744 165.755,209.457C169.269,204.238 173.365,200.184 177.569,196.346C176.456,190.349 180.809,186.257 185.47,189.211C188.737,191.281 187.51,198.997 180.667,198.435C170.881,206.992 164.988,215.249 162.874,223.216C167.279,218.958 173.759,217.233 182,216.811C181.004,212.417 190.686,209.552 192.896,214.832C194.038,217.558 189.928,224.832 182.761,220.201C164.208,221.245 156.486,231.545 157.543,242.45L153.797,242.017ZM105.497,219.398C104.403,219.398 103.516,220.285 103.516,221.379C103.516,222.472 104.403,223.36 105.497,223.36C106.59,223.36 107.478,222.472 107.478,221.379C107.478,220.285 106.59,219.398 105.497,219.398ZM39.367,178.841C38.314,178.841 37.458,179.519 37.458,180.354C37.458,181.189 38.314,181.867 39.367,181.867C40.421,181.867 41.276,181.189 41.276,180.354C41.276,179.519 40.421,178.841 39.367,178.841ZM56.584,193.032C55.65,193.032 54.891,193.662 54.891,194.437C54.891,195.212 55.65,195.842 56.584,195.842C57.518,195.842 58.277,195.212 58.277,194.437C58.277,193.662 57.518,193.032 56.584,193.032ZM64.112,166.379C63.118,166.379 62.311,167.137 62.311,168.072C62.311,169.006 63.118,169.765 64.112,169.765C65.106,169.765 65.913,169.006 65.913,168.072C65.913,167.137 65.106,166.379 64.112,166.379ZM45.022,166.307C44.068,166.307 43.293,167.098 43.293,168.072C43.293,169.046 44.068,169.837 45.022,169.837C45.976,169.837 46.751,169.046 46.751,168.072C46.751,167.098 45.976,166.307 45.022,166.307ZM88.388,155.717C87.513,155.717 86.803,156.315 86.803,157.05C86.803,157.786 87.513,158.383 88.388,158.383C89.263,158.383 89.973,157.786 89.973,157.05C89.973,156.315 89.263,155.717 88.388,155.717ZM116.338,184.316C115.503,184.316 114.825,185.026 114.825,185.901C114.825,186.775 115.503,187.486 116.338,187.486C117.173,187.486 117.851,186.775 117.851,185.901C117.851,185.026 117.173,184.316 116.338,184.316ZM68.146,149.09C67.033,149.09 66.129,149.849 66.129,150.783C66.129,151.717 67.033,152.476 68.146,152.476C69.259,152.476 70.163,151.717 70.163,150.783C70.163,149.849 69.259,149.09 68.146,149.09ZM91.594,198.867C90.659,198.867 89.901,199.594 89.901,200.488C89.901,201.383 90.659,202.109 91.594,202.109C92.528,202.109 93.287,201.383 93.287,200.488C93.287,199.594 92.528,198.867 91.594,198.867ZM91.233,213.131C90.259,213.131 89.469,213.873 89.469,214.787C89.469,215.702 90.259,216.444 91.233,216.444C92.208,216.444 92.998,215.702 92.998,214.787C92.998,213.873 92.208,213.131 91.233,213.131ZM175.48,154.277C174.645,154.277 173.967,154.922 173.967,155.717C173.967,156.513 174.645,157.158 175.48,157.158C176.315,157.158 176.993,156.513 176.993,155.717C176.993,154.922 176.315,154.277 175.48,154.277ZM110.791,97.8C109.44,97.8 108.342,98.865 108.342,100.177C108.342,101.489 109.44,102.554 110.791,102.554C112.143,102.554 113.241,101.489 113.241,100.177C113.241,98.865 112.143,97.8 110.791,97.8ZM102.831,149.09C101.738,149.09 100.85,149.929 100.85,150.963C100.85,151.997 101.738,152.836 102.831,152.836C103.925,152.836 104.812,151.997 104.812,150.963C104.812,149.929 103.925,149.09 102.831,149.09ZM168.925,133.458C167.851,133.458 166.98,134.443 166.98,135.655C166.98,136.868 167.851,137.852 168.925,137.852C169.998,137.852 170.87,136.868 170.87,135.655C170.87,134.443 169.998,133.458 168.925,133.458ZM112.412,139.869C111.438,139.869 110.647,140.644 110.647,141.598C110.647,142.553 111.438,143.327 112.412,143.327C113.386,143.327 114.177,142.553 114.177,141.598C114.177,140.644 113.386,139.869 112.412,139.869ZM163.99,184.1C162.818,184.1 161.865,185.036 161.865,186.189C161.865,187.342 162.818,188.278 163.99,188.278C165.163,188.278 166.116,187.342 166.116,186.189C166.116,185.036 165.163,184.1 163.99,184.1ZM182.504,191.448C181.41,191.448 180.523,192.351 180.523,193.465C180.523,194.578 181.41,195.482 182.504,195.482C183.597,195.482 184.485,194.578 184.485,193.465C184.485,192.351 183.597,191.448 182.504,191.448ZM187.618,214.932C186.605,214.932 185.782,215.722 185.782,216.696C185.782,217.671 186.605,218.461 187.618,218.461C188.632,218.461 189.455,217.671 189.455,216.696C189.455,215.722 188.632,214.932 187.618,214.932ZM108.162,164.506C107.188,164.506 106.397,165.329 106.397,166.343C106.397,167.357 107.188,168.18 108.162,168.18C109.136,168.18 109.927,167.357 109.927,166.343C109.927,165.329 109.136,164.506 108.162,164.506ZM106.253,113.72C105.219,113.72 104.38,114.559 104.38,115.593C104.38,116.627 105.219,117.466 106.253,117.466C107.287,117.466 108.126,116.627 108.126,115.593C108.126,114.559 107.287,113.72 106.253,113.72ZM129.413,177.256C128.479,177.256 127.72,177.967 127.72,178.841C127.72,179.716 128.479,180.426 129.413,180.426C130.347,180.426 131.106,179.716 131.106,178.841C131.106,177.967 130.347,177.256 129.413,177.256ZM131.538,106.589C130.504,106.589 129.665,107.444 129.665,108.497C129.665,109.551 130.504,110.406 131.538,110.406C132.572,110.406 133.411,109.551 133.411,108.497C133.411,107.444 132.572,106.589 131.538,106.589ZM149.763,136.628C148.531,136.628 147.53,137.338 147.53,138.213C147.53,139.087 148.531,139.797 149.763,139.797C150.996,139.797 151.996,139.087 151.996,138.213C151.996,137.338 150.996,136.628 149.763,136.628Z" style="fill:rgb(105,125,101);"/>
        </g>
    </g>
</svg>
